<svg width="35" height="35" fill="none" xmlns="http://www.w3.org/2000/svg"><path d="M150 99.712c-27.842 0-50.288 22.662-50.288 50.288 0 27.626 22.662 50.288 50.288 50.288 27.626 0 50.288-22.662 50.288-50.288 0-27.626-22.662-50.288-50.288-50.288zM300 20c0-11.046-8.954-20-20-20H20C8.954 0 0 8.954 0 20v260c0 11.046 8.954 20 20 20h260c11.046 0 20-8.954 20-20V20zM150 227.482c-42.95 0-77.482-34.532-77.482-77.482S107.05 72.518 150 72.518 227.482 107.05 227.482 150 192.95 227.482 150 227.482zM230.719 87.41c-9.928 0-18.129-7.986-18.129-18.13 0-10.143 7.985-18.129 18.129-18.129 10.144 0 18.13 7.986 18.13 18.13a17.26 17.26 0 01-5.18 12.733 17.272 17.272 0 01-12.734 5.18l-.216.216z" fill="#D2D6DB"/></svg>