<svg width="35" height="35" viewBox="0 0 300 300" fill="none" xmlns="http://www.w3.org/2000/svg"><path fill-rule="evenodd" clip-rule="evenodd" d="M300 280c0 11.046-8.954 20-20 20H20c-11.046 0-20-8.954-20-20V20C0 8.954 8.954 0 20 0h260c11.046 0 20 8.954 20 20v260zM157.875 101.737c-14.587 6.063-43.75 18.626-87.475 37.676-7.1 2.825-10.825 5.587-11.163 8.287-.575 4.575 5.15 6.375 12.925 8.812 1.063.338 2.163.676 3.288 1.05 7.662 2.488 17.962 5.4 23.313 5.513 4.862.1 10.287-1.9 16.275-6 40.85-27.588 61.937-41.525 63.262-41.825.938-.213 2.238-.488 3.113.3.875.775.787 2.25.7 2.65-.575 2.412-23 23.275-34.625 34.075-3.625 3.362-6.188 5.75-6.713 6.3a153.127 153.127 0 01-3.525 3.487c-7.125 6.85-12.45 12 .3 20.4 6.125 4.038 11.025 7.375 15.913 10.7 5.337 3.638 10.662 7.263 17.562 11.788 1.75 1.15 3.425 2.337 5.063 3.5 6.212 4.437 11.8 8.412 18.7 7.787 4-.375 8.15-4.137 10.25-15.375 4.962-26.575 14.737-84.125 17-107.85a26.48 26.48 0 00-.25-5.9 6.329 6.329 0 00-2.15-4.062c-1.788-1.462-4.563-1.775-5.813-1.75-5.637.1-14.287 3.112-55.95 20.437z" fill="#D2D6DB"/></svg>