<svg width="35" height="35" fill="none" xmlns="http://www.w3.org/2000/svg"><path d="M0 20C0 8.956 8.954 0 20 0h260c11.046 0 20 8.954 20 20v260c0 11.046-8.954 20-20 20H20c-11.045 0-20-8.954-20-20V20zm122.572 209.072c66.428 0 102.857-55.072 102.857-102.857v-4.714c7.071-5.143 13.285-11.572 18-18.858-6.429 2.786-13.5 4.715-20.786 5.786 7.5-4.5 13.286-11.571 15.857-19.928a78.235 78.235 0 01-22.928 8.785c-6.643-7.071-16.072-11.357-26.357-11.357-19.929 0-36.215 16.286-36.215 36.214 0 2.786.215 5.572 1.072 8.143-30-1.5-56.786-15.857-74.572-37.714-3 5.357-4.928 11.571-4.928 18.214 0 12.429 6.428 23.572 16.071 30-6 0-11.571-1.714-16.285-4.5v.429c0 17.571 12.428 32.143 28.928 35.571-3 .857-6.214 1.286-9.428 1.286-2.358 0-4.5-.215-6.858-.643 4.5 14.357 18 24.857 33.643 25.071-12.428 9.643-28.071 15.429-45 15.429-3 0-5.785 0-8.571-.429 15.857 10.286 34.928 16.286 55.285 16.286" fill="#D2D6DB"/></svg>